<?xml version="1.0" standalone="no"?>
<!DOCTYPE svg PUBLIC "-//W3C//DTD SVG 20010904//EN"
 "http://www.w3.org/TR/2001/REC-SVG-20010904/DTD/svg10.dtd">
<svg version="1.0" xmlns="http://www.w3.org/2000/svg"
 width="512.000000pt" height="512.000000pt" viewBox="0 0 512.000000 512.000000"
 preserveAspectRatio="xMidYMid meet">

<g transform="translate(0.000000,512.000000) scale(0.100000,-0.100000)"
fill="#000000" stroke="none">
<path d="M1255 4950 c-109 -23 -212 -78 -290 -155 -61 -62 -97 -119 -134 -214
l-26 -66 -3 -475 -3 -476 -45 -23 c-61 -33 -120 -100 -157 -179 l-32 -67 0
-255 0 -255 32 -67 c42 -90 100 -150 186 -193 38 -19 76 -35 83 -35 12 0 14
-60 14 -345 0 -320 -1 -346 -17 -352 -311 -110 -525 -234 -590 -343 l-33 -54
0 -594 0 -593 25 -24 24 -25 2031 0 2031 0 24 25 c25 24 25 26 25 215 0 189 0
191 -25 215 l-24 25 -256 0 -255 0 0 200 0 200 535 0 536 0 24 25 25 24 0 911
0 911 -25 24 -24 25 -775 0 -774 0 -4 168 c-3 163 -4 169 -34 233 -18 36 -52
88 -78 114 l-46 49 0 120 0 121 64 47 c78 56 145 138 192 235 51 104 64 181
64 376 0 165 0 168 -25 192 l-24 25 -260 0 -260 0 -20 45 c-48 108 -177 201
-346 247 -78 21 -97 22 -685 24 -333 1 -623 -1 -645 -6z m1785 -1306 c0 -47
-3 -55 -16 -50 -9 3 -27 6 -40 6 -22 0 -24 4 -24 44 0 47 -1 46 68 55 8 1 12
-16 12 -55z m-240 -324 l0 -360 -255 0 -256 0 -24 -25 -25 -24 0 -325 c0 -249
-3 -327 -12 -333 -21 -13 -384 -16 -436 -3 -26 6 -138 61 -249 121 -226 123
-273 163 -315 267 -22 55 -23 68 -26 430 -3 301 -1 372 10 372 7 0 101 54 208
119 l195 119 593 1 592 1 0 -360z m-1760 103 c0 -10 -21 -36 -48 -59 -26 -22
-61 -65 -77 -95 l-30 -54 -3 -233 c-3 -192 -1 -242 12 -279 9 -26 14 -48 12
-50 -9 -10 -76 28 -111 62 -61 62 -68 89 -73 285 -2 104 0 199 7 235 25 132
114 200 269 204 34 1 42 -2 42 -16z m2051 -29 c72 -50 110 -136 109 -248 l-1
-41 -13 36 c-31 88 -101 163 -182 196 -42 17 -44 20 -44 59 l0 41 47 -8 c26
-5 64 -21 84 -35z m-1907 -979 c50 -54 85 -78 196 -138 l135 -74 3 -110 3
-110 -133 -33 c-72 -18 -181 -48 -240 -65 l-108 -32 0 313 0 314 42 0 c39 0
46 -5 102 -65z m569 -321 c48 -12 104 -15 274 -12 l213 3 -2 -175 -3 -175 -60
-25 c-53 -22 -75 -25 -180 -25 -114 0 -123 1 -188 32 -38 18 -81 42 -98 53
l-29 21 0 160 c0 87 3 159 6 159 3 0 33 -7 67 -16z m394 -1470 c19 -9 46 -33
61 -52 25 -33 27 -44 30 -144 l4 -108 -601 0 -601 0 0 103 0 102 278 57 277
56 258 1 c221 1 264 -1 294 -15z m-1299 -136 l32 3 0 -85 0 -86 -40 0 -40 0 1
108 c1 61 4 96 8 82 6 -21 12 -24 39 -22z"/>
<path d="M1532 3320 c-94 -57 -94 -183 0 -240 87 -53 208 17 208 120 0 71 -69
140 -140 140 -19 0 -50 -9 -68 -20z m84 -111 c10 -17 -13 -36 -27 -22 -12 12
-4 33 11 33 5 0 12 -5 16 -11z"/>
<path d="M2332 3320 c-94 -57 -94 -183 0 -240 87 -53 208 17 208 120 0 71 -69
140 -140 140 -19 0 -50 -9 -68 -20z m84 -111 c10 -17 -13 -36 -27 -22 -12 12
-4 33 11 33 5 0 12 -5 16 -11z"/>
</g>
</svg>
