<?xml version="1.0" encoding="UTF-8"?>
<svg xmlns="http://www.w3.org/2000/svg" id="a" width="865.76" height="682.89" viewBox="0 0 865.76 682.89">
  <g>
    <path d="M424.27,218.51c-12.51,0-37.32-13.2-63.05-34.3-15.17-12.51-28.18-25.8-36.63-37.44-8.67-11.93-11.52-20.85-8-25.11,3.52-4.26,12.8-3.18,26.18,3.05,13.04,6.08,28.58,16.25,43.75,28.89,15.17,12.64,28.18,25.8,36.63,37.43,6.14,8.45,12.51,19.66,8,25.11-1.82,1.79-4.34,2.67-6.88,2.38Zm-100.78-97.75c-2.04-.22-4.06,.5-5.51,1.95-2.91,3.5,0,11.86,8.07,22.91,8.36,11.5,21.27,24.68,36.33,37.08,33.42,27.57,61.82,38.85,67.38,32.12,2.89-3.61,0-11.86-8.07-22.91-8.36-11.52-21.27-24.7-36.33-37.1-15.06-12.4-30.46-22.55-43.33-28.56-7.82-3.63-14.17-5.49-18.54-5.49Z" fill="#f69074"></path>
    <path d="M345.57,189.42c-26.4,0-48.44-4.19-49.31-13.18-1.14-11.9,35.75-22.62,72.05-26.12,19.57-1.81,38.17-1.81,52.36,.32,10.31,1.53,22.73,4.78,23.38,11.55,.65,6.77-10.83,12.33-20.74,15.8-13.52,4.77-31.74,8.43-51.31,10.33h0c-8.88,.85-17.89,1.3-26.43,1.3Zm49.45-38.83c-8.38,0-17.33,.45-26.52,1.34-43.11,4.15-71.22,15.83-70.41,24.16s30.69,14.44,73.75,10.24v0c19.43-1.81,37.5-5.51,50.88-10.22,12.84-4.53,19.97-9.6,19.55-13.92s-8.38-7.94-21.85-9.95c-8.42-1.15-16.91-1.7-25.4-1.64h0Z" fill="#f69074"></path>
    <g>
      <polygon points="395.25 135.69 407.55 115.14 413.47 121.1 423.98 106.44 428.54 111.03 412.62 130.2 407.66 123.07 395.25 135.69" fill="#f69074"></polygon>
      <path d="M392.67,139.03l14.78-24.69,5.96,5.99,10.51-14.66,5.31,5.33-16.63,20.03-5-7.18-14.92,15.18Zm14.97-23.08l-9.81,16.4,9.89-10.06,4.93,7.09,15.21-18.32-3.83-3.85-10.51,14.66-5.89-5.92Z" fill="#002346"></path>
    </g>
    <g>
      <polygon points="377.27 121.05 373.91 89.6 384.91 91.19 384.35 67.36 392.82 68.56 391.24 101.44 380.34 97.88 377.27 121.05" fill="#f69074"></polygon>
      <path d="M377.22,125.26l-3.87-36.25,11.05,1.6-.56-23.83,9.5,1.36-1.62,33.99-10.96-3.57-3.54,26.71Zm-2.74-35.07l2.85,26.65,2.6-19.62,10.85,3.54,1.52-31.77-7.43-1.06,.56,23.83-10.94-1.58Z" fill="#002346"></path>
    </g>
  </g>
  <rect x="75.34" y="502.36" width="723" height="1" fill="#002346"></rect>
  <g>
    <path d="M352.39,665.04c-1.56,.49-3.19,.71-4.82,.7-7.16,0-39.14-.13-39.97-.44-10.01-3.78-4.13-12.62-4.13-12.62h.12c.44,1.53,1.42,2.88,2.82,3.75,2.38,1.49,6.58,2.91,13.65,2.2h23.13s12.91,1.4,15.86-6.94c2.87,8.78-2.73,12.11-6.67,13.35Z" fill="#fff"></path>
    <path d="M347.58,666.24h-.02c-.39,0-39.08-.07-40.14-.48-3.12-1.18-5.08-2.96-5.83-5.3-1.26-3.91,1.35-7.9,1.46-8.06l.15-.22h.76l.1,.36c.42,1.45,1.34,2.68,2.6,3.46,2.18,1.36,6.26,2.84,13.34,2.12h23.18c.18,.01,12.61,1.26,15.39-6.6l.49-1.39,.46,1.4c1.13,3.46,1.08,6.44-.15,8.83-1.53,2.96-4.56,4.44-6.84,5.15h0c-1.54,.48-3.2,.73-4.95,.73Zm-44.14-12.5c-.65,1.28-1.7,3.92-.9,6.42,.66,2.03,2.41,3.6,5.23,4.66,1.27,.27,30.64,.41,39.79,.41h.02c1.65,0,3.21-.23,4.65-.68h0c2.1-.66,4.88-2,6.25-4.65,.95-1.85,1.11-4.11,.47-6.75-3.81,7.17-15.3,6.02-15.81,5.96h-23.08c-7.31,.74-11.61-.83-13.92-2.27-1.19-.74-2.12-1.82-2.69-3.1Z" fill="#002346"></path>
  </g>
  <g>
    <path d="M163.01,632.38s-2.67,9.79,14.68,11.12c0,0,18.24,3.11,31.59-4,0,0,8.01-4,13.79-4,0,0,18.24,1.33,18.69-8.45l-.92-9.57-31.56,6.01-46.27,8.9Z" fill="#fff"></path>
    <path d="M187.21,644.66c-5.55,0-9.51-.65-9.6-.67-6.86-.53-11.51-2.43-13.79-5.66-2.1-2.99-1.33-5.96-1.29-6.08l.08-.3,46.57-8.96,32.1-6.11,.97,10.11c-.09,2.12-.93,3.87-2.49,5.25-5.11,4.54-16.26,3.78-16.73,3.75-5.57,0-13.45,3.91-13.53,3.95-7.18,3.83-15.82,4.72-22.3,4.72Zm-23.77-11.86c-.12,.76-.26,2.88,1.21,4.97,2.1,2.96,6.5,4.72,13.08,5.23,.23,.04,18.28,3.01,31.31-3.95,.34-.17,8.19-4.06,14.03-4.06,.15,0,11.24,.76,16.03-3.5,1.35-1.2,2.08-2.71,2.16-4.48l-.86-8.95-31.02,5.9-45.94,8.83Z" fill="#002346"></path>
  </g>
  <g>
    <path d="M366.77,640.38s-4.88,4.83-7.11,5.53l-.26-.47c-.06-2.79,.51-7.38,4.26-10.84,0,0,3.56-2.22,3.56-9.34,0,0,3.11,10.23-.44,15.13Z" fill="#fff"></path>
    <path d="M359.42,646.51l-.52-.94v-.12c-.06-2.61,.44-7.55,4.42-11.22,.1-.08,3.4-2.26,3.4-8.98v-3.36l.98,3.21c.13,.43,3.14,10.53-.52,15.57l-.05,.06c-.2,.2-4.99,4.92-7.31,5.65l-.39,.12Zm8.03-18.04c-.84,4.81-3.4,6.47-3.53,6.55-3.38,3.13-4.07,7.28-4.03,10.26,1.85-.86,5.23-3.98,6.49-5.23,2.17-3.02,1.68-8.25,1.06-11.58Z" fill="#002346"></path>
  </g>
  <g>
    <path d="M250.66,566.53s-1.14,4.85-6.9,3.78c0,0,1.9-4.68,4.17-8.46,.46,.37,1.07,.95,1.61,1.78,.74,1.14,1,2.23,1.11,2.89Z" fill="#fbe493"></path>
    <path d="M245.35,570.97c-.51,0-1.07-.05-1.68-.16l-.6-.11,.23-.57s1.94-4.76,4.21-8.53l.29-.49,.45,.36c.67,.54,1.25,1.18,1.72,1.9,.6,.93,1,1.97,1.19,3.08l.02,.1-.02,.1s-1.08,4.32-5.8,4.32Zm-.88-1.05c4.34,.5,5.5-2.79,5.68-3.41-.17-.94-.51-1.81-1.02-2.6-.3-.47-.66-.9-1.07-1.28-1.63,2.81-3.04,6-3.59,7.29Z" fill="#002346"></path>
  </g>
  <g>
    <path d="M378.12,573.87s-1.11,8.68-8.9,8.9c0,0,1.14-7.97,4-11.57l4.89,2.67Z" fill="#fbe493"></path>
    <path d="M368.64,583.29l.08-.59c.05-.33,1.19-8.15,4.11-11.81l.26-.33,5.56,3.03-.04,.34c-.01,.09-1.26,9.1-9.38,9.33l-.59,.02Zm4.72-11.44c-2.13,2.98-3.23,8.55-3.55,10.39,6-.55,7.48-6.58,7.75-8.09l-4.2-2.29Z" fill="#002346"></path>
  </g>
  <g>
    <path d="M367.22,625.26c0,7.12-3.56,9.34-3.56,9.34-3.75,3.46-4.32,8.05-4.26,10.84,.01,.63,.06,1.17,.11,1.59,.13,1.06,.14,2.13-.06,3.17-.1,.53-.23,1.02-.4,1.49-2.95,8.33-15.86,6.94-15.86,6.94h-23.13c-7.07,.71-11.27-.71-13.65-2.2-1.39-.87-2.38-2.22-2.82-3.75-.24-.82-.33-1.7-.24-2.57,.77-7.34,8.7-13.28,8.7-13.28,.32-.26,.62-.52,.93-.78,6.99-6.07,11.58-14.4,13.37-23.48,2.15-10.91,5.72-12.21,5.72-12.21-1.33-.44,6.23-5.34,6.23-5.34l18.69,.44,8.45,13.35,1.78,16.46Z" fill="#f69074"></path>
    <path d="M316.47,659.31c-5.18,0-8.43-1.27-10.33-2.46-1.47-.91-2.55-2.35-3.03-4.03-.27-.9-.35-1.83-.25-2.76,.78-7.47,8.56-13.38,8.89-13.63,.29-.24,.6-.5,.9-.76,6.72-5.83,11.41-14.07,13.21-23.2,1.74-8.84,4.46-11.55,5.56-12.31,.06-.89,2.28-2.76,6.61-5.56l.13-.08,19.11,.45,8.66,13.67,1.8,16.63c0,7.31-3.64,9.67-3.79,9.77-3.43,3.18-4.09,7.42-4.02,10.41,.01,.53,.05,1.06,.11,1.54,.15,1.24,.13,2.33-.06,3.32-.1,.54-.24,1.07-.42,1.56-3.05,8.6-15.84,7.32-16.38,7.26h-23.08c-1.29,.13-2.48,.19-3.59,.19Zm16.07-59.34l1.04,.35-1.35,.49s-3.36,1.47-5.4,11.84c-1.84,9.35-6.65,17.79-13.54,23.77-.3,.26-.62,.53-.93,.79-.1,.07-7.78,5.92-8.52,12.95-.09,.8-.01,1.6,.22,2.38,.42,1.45,1.34,2.68,2.6,3.46,2.18,1.36,6.26,2.84,13.34,2.12h23.18c.18,.01,12.61,1.26,15.39-6.6,.16-.45,.29-.92,.38-1.41,.17-.9,.19-1.89,.05-3.02-.06-.52-.1-1.07-.12-1.63-.06-2.62,.44-7.55,4.42-11.22,.1-.08,3.39-2.26,3.4-8.95l-1.76-16.32-8.25-13.02-18.26-.44c-2.5,1.63-5.24,3.64-5.9,4.47Z" fill="#002346"></path>
  </g>
  <g>
    <path d="M207.5,582.55s-3.52,2.11-6.17,8.84c-1.42,3.59-3.41,6.93-6.06,9.74-3.67,3.89-9.57,8.56-18.46,11.68,0,0-13.79,4.89-13.79,19.58,0,0,26.25,8.45,52.5-2.22,0,0,8.01-4.45,15.57-3.11,0,0,10.68,1.78,9.79-15.13l-1.33-19.58-11.12-12.01-17.35-.89-3.56,3.11Z" fill="#f69074"></path>
    <path d="M186.57,636.01c-13.65,0-23.55-3.11-23.71-3.16l-.35-.11v-.36c0-14.86,13.98-20,14.12-20.05,9.1-3.18,14.96-8.04,18.27-11.55,2.48-2.63,4.49-5.86,5.96-9.58,2.56-6.49,5.91-8.78,6.34-9.06l3.68-3.22,17.76,.91,11.38,12.29,1.35,19.75c.34,6.47-.94,11.04-3.8,13.6-2.94,2.63-6.42,2.08-6.57,2.06-7.32-1.29-15.17,3.01-15.25,3.06-10.21,4.15-20.46,5.42-29.18,5.42Zm-23.06-4.01c3.2,.94,27.66,7.51,51.81-2.32,.28-.16,8.2-4.49,15.85-3.14,.03,0,3.18,.48,5.75-1.83,2.61-2.35,3.77-6.65,3.45-12.78l-1.32-19.39-10.86-11.73-16.95-.87-3.48,3.03s-3.42,2.13-5.97,8.59c-1.52,3.84-3.59,7.17-6.16,9.9-3.39,3.59-9.38,8.56-18.66,11.81-.13,.05-13.22,4.87-13.45,18.73Z" fill="#002346"></path>
  </g>
  <g>
    <path d="M361.53,281.58c-.76,.03,25.04,14.68,37.95-8.9l-.44-12.9s-4.61-1.75-8.01-4c0,0-4.49,24.69-29.49,25.8Z" fill="#f2b3c1"></path>
    <path d="M377.93,286.56c-4.3,0-8.1-.95-10.56-1.76-.07-.02-6.5-2.23-6.36-3.28l.06-.41,.43-.03c24.31-1.08,28.98-25.15,29.02-25.39l.14-.75,.63,.42c3.31,2.2,7.86,3.94,7.91,3.95l.31,.12,.46,13.37-.07,.12c-5.96,10.89-14.68,13.64-21.98,13.64Zm-14.83-4.59c2.98,1.52,10.89,4.69,19.19,3.28,7.08-1.21,12.69-5.48,16.68-12.69l-.43-12.44c-1.03-.41-4.36-1.78-7.19-3.54-.98,4.02-6.83,23.55-28.25,25.39Zm-1.55,.1h0Z" fill="#2f2e41"></path>
  </g>
  <g>
    <rect x="326.54" y="184.23" width="62.58" height="97.52" rx="31.29" ry="31.29" transform="translate(-30.87 56.25) rotate(-8.62)" fill="#f2b3c1"></rect>
    <path d="M360.43,282.06c-15.44,0-29.03-11.3-31.41-27.03l-5.24-34.54c-2.63-17.33,9.34-33.57,26.67-36.2,17.34-2.63,33.57,9.34,36.2,26.67l5.24,34.54c1.27,8.4-.8,16.78-5.84,23.62-5.04,6.84-12.43,11.3-20.83,12.57-1.61,.24-3.21,.36-4.78,.36Zm-5.15-97.13c-1.55,0-3.12,.12-4.68,.35-16.79,2.54-28.37,18.27-25.83,35.06l5.24,34.54c2.54,16.79,18.27,28.37,35.06,25.83h0c8.13-1.23,15.3-5.56,20.17-12.18,4.88-6.62,6.89-14.75,5.65-22.88l-5.24-34.54c-1.23-8.13-5.56-15.3-12.18-20.17-5.35-3.94-11.68-6.01-18.2-6.01Z" fill="#002346"></path>
  </g>
  <path d="M394.56,213.4c-1.76-3.97-6.63-18.12-6.68-18.26l.5-.17c.05,.14,4.91,14.27,6.67,18.22l-.49,.22Z" fill="#ed1c24"></path>
  <path d="M413.22,234.96l-8.89-12.68v-.07s-.4-5.49-.4-5.49c-.04-.61,.15-1.2,.54-1.67l.09-.11c.68-.78,1.73-1.09,2.75-.8,1.04,.3,1.78,1.15,1.94,2.21,.74,4.86,2.16,13.49,3.32,16.77l.65,1.84Zm-8.37-12.87l6.73,9.6c-1.06-3.98-2.21-11.04-2.86-15.26-.13-.85-.73-1.53-1.56-1.77-.82-.24-1.64,0-2.2,.64l-.08,.1c-.3,.36-.45,.82-.41,1.29l.39,5.41Z" fill="#ed1c24"></path>
  <path d="M344.97,200.39s-16.02-1.78-16.46,16.02c0,0,1.42,9.99-1.74,21.01l2.74,17.54s1.2,11.48,10.77,19.39l-22.9,9.24s-7.12,3.56-9.79,12.46c0,0-13.79-11.12-6.23-30.25l15.57-76.52s14.24-39.6,38.26-31.59c0,0,26.25-18.24,44.93,14.68,0,0,11.57,15.13,20.91,59.17,0,0,9.57,26.92,22.91,34.92,0,0-11.6-3.11-21.35-3.11-1.33,0-31.15-7.34-31.15-7.34l-17.56-45.82s-16.02-21.35-28.92-9.79Z" fill="#002346"></path>
  <path d="M307.74,296.49l-.31-.25c-.14-.11-13.86-11.47-6.31-30.56l15.56-76.48c.05-.14,3.66-10.07,10.17-18.9,8.62-11.69,18.41-16.16,28.31-12.92,1.16-.76,11.16-7,22.79-4.36,8.78,2,16.32,8.46,22.42,19.2,.1,.12,11.69,15.65,20.94,59.25,.08,.23,9.68,26.89,22.79,34.75l1.62,.97-1.82-.49c-.12-.03-11.68-3.1-21.29-3.1-1.35,0-30-7.05-31.22-7.35l-.13-.03-.05-.13-17.55-45.79c-.5-.66-9.39-12.08-18.95-13.03-3.51-.35-6.73,.77-9.56,3.31l-.09,.08h-.12c-.07-.02-6.59-.69-11.3,3.42-3.1,2.7-4.73,6.85-4.87,12.33,.01,.06,1.38,10.09-1.73,21.02l2.73,17.48c.01,.13,1.3,11.48,10.68,19.22l.34,.28-23.31,9.41c-.05,.03-7.03,3.61-9.63,12.29l-.11,.38Zm41.16-139.61c-19.79,0-31.58,32.11-31.71,32.47l-15.56,76.48c-6.79,17.19,3.88,27.96,5.84,29.73,2.76-8.62,9.73-12.19,9.8-12.23l22.51-9.09c-9.24-7.88-10.52-19.16-10.53-19.28l-2.75-17.58,.02-.06c3.1-10.84,1.75-20.8,1.73-20.9,.14-5.68,1.84-9.95,5.05-12.76,4.52-3.95,10.65-3.64,11.58-3.57,2.93-2.59,6.25-3.72,9.88-3.36,10.03,.99,19.25,13.14,19.34,13.26l.04,.06,17.51,45.69c8.38,2.06,29.89,7.3,30.96,7.3,7.61,0,16.42,1.91,19.9,2.74-12.59-8.87-21.61-33.94-21.7-34.2-9.23-43.49-20.76-58.95-20.87-59.1-6.04-10.64-13.47-17.01-22.1-18.98-12.08-2.75-22.38,4.28-22.48,4.35l-.11,.08-.13-.04c-2.15-.72-4.23-1.04-6.22-1.04Z" fill="#002346"></path>
  <g>
    <path d="M278.93,251.25c.91-.62,1.82-1.26,2.62-2.02,3.7-3.55,13.08-13.03,16.27-20.81l16.91-39.18c.97-2.26,4.29-2.24,5.1,.08,.45,1.3,.63,3.14,.24,5.74,0,0,4.45,2.67-5.34,23.58,0,0,3.53-6.28,6.91-5.94,.44,.04,.79,.38,.89,.82,.44,1.92,.38,8.31-11.81,23.36,0,0,.89,17.8-12.9,30.7,0,0-5.78,3.56-5.34,10.68l-.35,27.77c-.06,4.89,.58,9.77,1.91,14.48l2.89,10.25,3.11-12.01s17.35-3.56,29.36,15.13l2.22,12.9-16.91,42.26s-15.13,30.7-35.59,10.68c0,0-12.9-10.68-13.79-48.05,0,0-1.33-50.27,3.56-79.19,0,0,3.97-17.06,10.03-21.21Z" fill="#f2b3c1"></path>
    <path d="M293.11,406.98c-4.82,0-9.63-2.32-14.33-6.92-.5-.41-13.06-11.22-13.94-48.39-.01-.5-1.28-50.65,3.57-79.29,.17-.73,4.09-17.33,10.24-21.54h0c.95-.65,1.8-1.25,2.55-1.97,3.81-3.65,13.02-12.98,16.15-20.64l16.92-39.19c.54-1.25,1.8-2.02,3.17-1.98,1.34,.05,2.43,.85,2.86,2.09,.51,1.49,.61,3.41,.3,5.7,.88,.92,2.84,4.87-3.52,19.75,1.31-1.38,2.95-2.58,4.61-2.41,.65,.07,1.18,.55,1.33,1.2,.49,2.12,.3,8.67-11.79,23.64,.04,1.99-.04,18.71-13.07,30.89-.13,.09-5.6,3.56-5.18,10.28l-.35,27.81c-.06,4.85,.58,9.67,1.89,14.34l2.39,8.47,2.73-10.52,.31-.06c.18-.04,17.82-3.41,29.88,15.35l.07,.19,2.25,13.04-.05,.13-16.91,42.26c-.33,.67-7.78,15.55-19.51,17.55-.85,.15-1.71,.22-2.56,.22Zm24.19-218.93c-.93,0-1.76,.53-2.12,1.38l-16.91,39.18c-3.2,7.83-12.52,17.28-16.38,20.98-.81,.78-1.69,1.4-2.68,2.07h0c-5.83,3.99-9.79,20.74-9.83,20.91-4.82,28.51-3.56,78.56-3.55,79.06,.87,36.64,13.48,47.57,13.61,47.68,5.33,5.21,10.73,7.37,16.06,6.46,11.23-1.92,18.69-16.82,18.77-16.97l16.84-42.1-2.18-12.66c-10.81-16.73-26.14-15.21-28.48-14.87l-3.5,13.49-3.39-12.03c-1.34-4.76-1.99-9.68-1.93-14.62l.35-27.77c-.44-7.04,4.94-10.69,5.53-11.07,13.42-12.58,12.72-30.1,12.71-30.27v-.19s.11-.15,.11-.15c12.26-15.15,12.06-21.39,11.71-22.94-.05-.23-.24-.41-.46-.43-2.52-.26-5.48,4.02-6.42,5.68l-.89-.46c9.31-19.89,5.56-22.92,5.52-22.95l-.25-.18,.03-.31c.34-2.25,.26-4.1-.22-5.5-.29-.85-1.02-1.38-1.95-1.42-.03,0-.06,0-.09,0Z" fill="#002346"></path>
  </g>
  <path d="M294.7,262.28c-.11,0-.22-.04-.32-.11-.21-.17-.25-.49-.07-.7,.09-.12,9.5-11.76,11.35-19.03,.05-.17,1.11-3.23,4.75-5.97,.22-.17,.53-.12,.7,.1,.17,.22,.12,.53-.1,.7-3.38,2.53-4.39,5.42-4.4,5.45-1.89,7.45-11.14,18.9-11.53,19.38-.1,.12-.24,.18-.39,.18Z" fill="#002346"></path>
  <path d="M301.82,235.59c-.11,0-.22-.04-.31-.11-.22-.17-.25-.49-.08-.7l13.35-16.91c.17-.22,.49-.25,.7-.08,.22,.17,.25,.49,.08,.7l-13.35,16.91c-.1,.12-.25,.19-.39,.19Z" fill="#002346"></path>
  <path d="M296.19,232.43c-.1,0-.2-.03-.28-.09-.23-.16-.29-.47-.13-.69,.15-.23,15.41-22.67,17.59-28.33,.71-1.42,4.25-8.29,6.6-8.76,.26-.05,.53,.12,.59,.39,.05,.27-.12,.53-.39,.59-1.45,.29-4.37,5.17-5.88,8.19-2.2,5.73-17.05,27.56-17.68,28.49-.1,.14-.25,.22-.41,.22Z" fill="#002346"></path>
  <g opacity=".2">
    <path d="M326.73,275.35s-.08-.01-.12-.03c-.1-.06-10.34-6.46-6.77-18.94,.05-.12,4.03-9.6,6.67-20.3,.03-.12,.14-.19,.27-.16,.12,.03,.19,.15,.16,.27-2.65,10.73-6.64,20.24-6.68,20.34-3.46,12.12,6.48,18.35,6.58,18.41,.1,.06,.14,.2,.07,.31-.04,.07-.11,.11-.19,.11Z"></path>
  </g>
  <g opacity=".2">
    <path d="M344.97,200.61c-.1,0-.19-.07-.21-.16-.01-.05-1.32-5.07,3.18-9.12,.09-.08,.23-.08,.31,.02,.08,.09,.08,.23-.02,.31-4.3,3.87-3.06,8.63-3.05,8.67,.03,.12-.04,.24-.16,.27-.02,0-.04,0-.06,0Z"></path>
  </g>
  <g opacity=".2">
    <path d="M343.55,187.01c-.11,0-.2-.08-.22-.19-.02-.13-2.07-12.84,4.6-19.96,.08-.09,.22-.09,.31,0,.09,.08,.09,.22,0,.31-6.52,6.95-4.5,19.45-4.48,19.58,.02,.12-.06,.24-.18,.26-.01,0-.03,0-.04,0Z"></path>
  </g>
  <path d="M308.94,376.62c-.26,0-.48-.2-.5-.46-.87-10.48-3.07-17.17-3.09-17.23l-8.9-28.04c-.08-.26,.06-.54,.33-.63,.27-.08,.54,.06,.63,.33l8.9,28.03c.02,.06,2.25,6.85,3.14,17.46,.02,.28-.18,.52-.46,.54-.01,0-.03,0-.04,0Z" fill="#002346"></path>
  <g>
    <path d="M300.04,318.73l7.56-22.69s2.67-8.9,9.79-12.46l22.9-9.24s9.32,7.91,21.24,7.24c0,0,24.63,14.54,37.41-7.96l29.52-10.34,21.51,4.29s26.47,5.12,27.58,28.47l.41,100.14c.02,5.89,.64,11.76,1.83,17.53l.54,2.6c2,9.68,3.36,19.48,4.06,29.34l.28,3.88s-14.24-7.12-25.8-8.01l-103.21,11.12-9.79-9.34s7.84-16.45-.02-49.73c-.91-3.86-2.2-7.62-3.73-11.27-3.09-7.33-8.87-22.36-10.48-35.54l-2.22-12.9s-9.79-16.91-29.36-15.13Z" fill="#f69074"></path>
    <path d="M355.47,453.16l-10.22-9.75,.16-.33c.08-.16,7.66-16.72-.06-49.4-.85-3.61-2.1-7.37-3.71-11.19-3.24-7.69-8.92-22.56-10.51-35.67l-2.21-12.79c-.74-1.2-10.45-16.47-28.84-14.81l-.76,.07,7.8-23.42c.11-.36,2.81-9.13,10.04-12.75l23.21-9.37,.23,.2c.09,.08,9.28,7.76,20.89,7.12h.15s.13,.07,.13,.07c.12,.07,11.64,6.76,22.75,3.79,5.79-1.55,10.49-5.44,13.97-11.57l.09-.16,29.83-10.45,21.65,4.32c.27,.05,26.87,5.46,27.99,28.94l.41,100.16c.02,5.85,.64,11.71,1.82,17.43l.54,2.59c2,9.67,3.37,19.56,4.07,29.4l.34,4.76-.79-.39c-.14-.07-14.28-7.08-25.62-7.96l-103.35,11.15Zm-9.01-9.99l9.37,8.94,102.98-11.1c10.06,.77,22.14,6.19,25.3,7.68l-.22-3.02c-.7-9.8-2.06-19.65-4.05-29.27l-.54-2.59c-1.2-5.79-1.82-11.72-1.84-17.63l-.41-100.14c-1.08-22.68-26.92-27.93-27.18-27.98l-21.38-4.26-29.21,10.23c-3.61,6.28-8.48,10.28-14.5,11.88-10.99,2.93-21.98-3.03-23.38-3.82-10.85,.54-19.66-5.96-21.2-7.17l-22.63,9.13c-6.8,3.4-9.47,12.05-9.5,12.14l-7.33,21.99c19.2-1.29,28.98,15.26,29.08,15.43l.06,.17,2.22,12.9c1.59,13.02,7.23,27.78,10.45,35.43,1.63,3.87,2.9,7.69,3.76,11.35,7.21,30.51,1.17,47.2,.13,49.72Z" fill="#002346"></path>
  </g>
  <path d="M329.4,334.35c-.28,0-.5-.22-.5-.5,0-8.74-3.07-22.44-3.1-22.58-.06-.27,.11-.54,.38-.6,.27-.06,.54,.11,.6,.38,.03,.14,3.13,13.95,3.13,22.8,0,.28-.22,.5-.5,.5Z" fill="#002346"></path>
  <path d="M467.76,335.24c-.07,0-.14-.02-.21-.05-.25-.12-.36-.41-.24-.66l6.23-13.35c.12-.25,.41-.36,.67-.24,.25,.12,.36,.41,.24,.66l-6.23,13.35c-.08,.18-.27,.29-.45,.29Z" fill="#002346"></path>
  <g>
    <path d="M337.85,564.31l-5.78,36.04s11.12-5.34,17.8,4.45c0,0,7.12,11.12,15.57,4,0,0,3.17-32.41,7.81-37.34,0,0-18.05-15.16-35.4-7.15Z" fill="#f2b3c1"></path>
    <path d="M359.61,611.68c-.41,0-.82-.03-1.23-.09-5.21-.79-8.78-6.29-8.93-6.52-6.34-9.3-16.72-4.48-17.16-4.27l-.86,.41,5.98-37.24,.24-.11c17.44-8.05,35.75,7.07,35.93,7.23l.41,.34-.36,.39c-4.47,4.75-7.65,36.72-7.68,37.04l-.02,.2-.16,.13c-1.97,1.66-4.04,2.5-6.15,2.5Zm-20.67-13.26c3.66,0,8.04,1.26,11.34,6.09,.04,.07,3.49,5.36,8.25,6.08,2.2,.33,4.35-.36,6.43-2.05,.29-2.94,3.21-31.09,7.58-37.01-2.69-2.09-18.83-13.8-34.24-6.88l-5.6,34.9c1.19-.44,3.52-1.13,6.24-1.13Z" fill="#002346"></path>
  </g>
  <g>
    <path d="M215.06,552.3s-4,22.69-7.56,30.25c0,0,8.9-.89,12.9,6.23,0,0,8.01,12.9,19.13,3.56,.44-.44-.11-13.8,8.4-30.48,0,0-12.85-21.13-32.87-9.56Z" fill="#f2b3c1"></path>
    <path d="M231.42,596.23c-.54,0-1.08-.04-1.62-.13-5.97-.95-9.67-6.81-9.82-7.06-3.8-6.76-12.34-6-12.43-5.99l-.88,.09,.38-.8c3.49-7.42,7.48-29.9,7.52-30.13l.04-.23,.2-.12c20.21-11.68,33.42,9.52,33.55,9.73l.15,.24-.13,.25c-6.82,13.37-7.77,24.48-8.13,28.66-.12,1.43-.15,1.73-.36,1.95-2.81,2.36-5.64,3.54-8.47,3.54Zm-23.04-14.21c2.44,0,9.12,.57,12.46,6.51,.02,.04,3.61,5.71,9.13,6.58,3.03,.48,6.1-.56,9.15-3.08,.04-.22,.09-.79,.14-1.38,.36-4.21,1.32-15.34,8.11-28.77-1.52-2.36-13.49-19.7-31.84-9.27-.44,2.46-3.93,21.63-7.23,29.4h.09Z" fill="#002346"></path>
  </g>
  <g>
    <path d="M355.2,200.83s-2.67,3.56,4.45,12.9l6.35,8.28c2.25,2.93,4.16,6.09,5.69,9.45,3.34,7.32,11.38,21.77,24.75,27.36,1.22,.51,2.07,1.63,2.21,2.95,.55,5.1,1.36,19.27-2.08,45.38,0,0-19.13,82.75,8.45,93.43,0,0,18.69,13.35,40.93-25.8l21.8-40.04s-10.23-24.47-37.37-24.02l-2.21-56.52c-.02-.42-.07-.83-.17-1.23-.46-1.91-2.22-6.9-8.77-12.11-1.5-1.2-2.84-2.59-4.08-4.05-4.48-5.27-12.12-10.99-14.36-24.24-.14-.83-.22-1.66-.3-2.49-.2-2.38-.92-8.72-3.29-15.36-.71-2-1.26-4.05-1.54-6.16l-.8-6.02c-.5-3.78-5.85-4.26-6.94-.61-.75,2.51-.91,6.59,.18,13.12,0,0-5.5-13.35-10.87-18.76-2.09-2.11-5.65-.4-5.3,2.54,.26,2.19,1.05,5.32,2.89,9.74,2.41,5.76,4.47,11.67,6.12,17.69l1.5,5.44c.04,.15-.17,.23-.24,.09l-15.27-28.97c-.89-1.69-2.85-2.52-4.68-1.98h0c-2.33,.69-3.52,3.28-2.53,5.49l13.42,29.83c.08,.19-.17,.34-.29,.17-3.42-4.73-14.69-19.65-17.69-15.51Z" fill="#f2b3c1"></path>
    <path d="M413.21,403.29c-4.9,0-7.95-1.94-8.41-2.25-27.59-10.8-9.49-90.59-8.7-93.98,3.44-26.15,2.59-40.33,2.07-45.21-.12-1.12-.85-2.1-1.91-2.54-13.34-5.58-21.4-19.7-25.01-27.62-1.5-3.29-3.4-6.44-5.63-9.36l-6.35-8.28c-7.19-9.44-4.62-13.27-4.46-13.5h0c.44-.6,1.06-.92,1.81-.92h0c3.71,0,10.68,8.42,14.85,13.95l-12.16-27.02c-.54-1.19-.53-2.55,.02-3.73,.54-1.19,1.57-2.08,2.83-2.44,2.05-.6,4.27,.33,5.26,2.22l13.68,25.95-.59-2.15c-1.63-5.91-3.68-11.85-6.1-17.63-1.63-3.89-2.61-7.21-2.93-9.87-.19-1.55,.6-3,2-3.67,1.41-.68,3.04-.4,4.15,.72,3.76,3.79,7.52,11.27,9.51,15.61-.46-4.17-.35-7.44,.34-9.75,.63-2.14,2.55-2.97,4.17-2.84,1.65,.13,3.45,1.27,3.75,3.53l.8,6.02c.26,1.95,.75,3.93,1.51,6.06,2.38,6.67,3.11,13.05,3.32,15.48,.06,.73,.14,1.59,.29,2.45,1.81,10.71,7.21,16.45,11.55,21.05,.96,1.02,1.88,1.99,2.69,2.95,1.42,1.67,2.69,2.93,4.01,3.98,6.66,5.3,8.47,10.42,8.94,12.38,.1,.43,.16,.88,.18,1.33l2.19,56.04c.08,0,.16,0,.24,0,26.62,0,37.01,24.09,37.11,24.34l.09,.22-.11,.21-21.8,40.04c-9.23,16.24-18.96,25.59-28.92,27.78-1.55,.34-2.98,.48-4.28,.48Zm-57.6-202.16c-.04,.06-2.26,3.51,4.44,12.3l6.35,8.28c2.29,2.98,4.22,6.19,5.75,9.55,3.55,7.79,11.46,21.66,24.49,27.11,1.39,.58,2.35,1.87,2.51,3.35,.53,4.92,1.38,19.2-2.08,45.5-.2,.87-18.73,82.5,8.14,92.9l.11,.06s4.71,3.26,11.98,1.64c6.64-1.48,16.93-7.41,28.22-27.29l21.68-39.81c-1.09-2.38-11.48-23.51-36.09-23.51-.24,0-.47,0-.71,0h-.49s-.02-.48-.02-.48l-2.21-56.52c-.02-.39-.07-.77-.16-1.14-.44-1.86-2.17-6.73-8.59-11.83-1.37-1.09-2.69-2.4-4.15-4.12-.8-.94-1.7-1.9-2.66-2.91-4.44-4.7-9.96-10.56-11.81-21.57-.15-.9-.24-1.79-.3-2.53-.2-2.39-.92-8.67-3.26-15.23-.78-2.2-1.3-4.24-1.57-6.26l-.8-6.02c-.24-1.82-1.68-2.57-2.83-2.66-1.13-.09-2.62,.42-3.13,2.13-.83,2.79-.76,7.13,.2,12.89l.73,4.35-1.68-4.08c-.05-.13-5.52-13.32-10.76-18.6-.97-.98-2.19-.91-3-.52-.81,.39-1.61,1.29-1.45,2.66,.31,2.57,1.27,5.8,2.86,9.6,2.44,5.83,4.51,11.8,6.14,17.75l1.5,5.44c.08,.31-.08,.63-.38,.75-.3,.12-.64,0-.79-.29l-15.27-28.97c-.78-1.47-2.5-2.2-4.1-1.73-.97,.29-1.78,.98-2.2,1.9-.42,.92-.43,1.98-.01,2.91l13.42,29.83c.14,.31,.02,.68-.27,.86-.3,.18-.67,.1-.87-.19-5.6-7.74-12.72-16.02-15.88-16.02h0c-.43,0-.75,.16-1,.51Zm17.12,15.25s0,0,0,0h0Z" fill="#002346"></path>
  </g>
  <path d="M434.4,374.84c-.06,0-.12-.01-.18-.03-.26-.1-.39-.39-.29-.64,5.22-13.92,.04-32.87-.01-33.06-3.09-12.82-4.01-30.19-4.02-30.36-.01-.28,.2-.51,.47-.52,.3-.01,.51,.2,.52,.47,0,.17,.92,17.45,3.99,30.16,.05,.18,5.32,19.44-.02,33.66-.08,.2-.27,.32-.47,.32Z" fill="#002346"></path>
  <g>
    <path d="M187.92,542.14l-.02,6.65-.1,25.46-.04,11.68h-34.33l.04-11.78,.1-25.46,.02-6.55c0-2.4,.61-4.71,1.71-6.76,1.1-2.04,2.7-3.82,4.7-5.14,3.97-2.65,6.36-7.11,6.37-11.88l.18-47.13h9l-.16,47.13v.03c0,4.73,2.34,9.16,6.25,11.82,3.96,2.67,6.32,7.15,6.28,11.93Z" fill="#fbe493"></path>
    <path d="M188.26,586.43h-35.33l.16-44.29c0-2.44,.62-4.86,1.77-7,1.15-2.14,2.84-3.98,4.87-5.32,3.84-2.56,6.13-6.85,6.15-11.46l.18-47.63h10l-.16,47.63c0,4.6,2.25,8.87,6.03,11.44,4.11,2.77,6.54,7.39,6.5,12.35l-.16,44.29Zm-34.33-1h33.33l.16-43.29c.04-4.62-2.23-8.93-6.06-11.51-4.05-2.76-6.47-7.33-6.47-12.23l.16-46.66h-8l-.18,46.63c-.01,4.95-2.48,9.55-6.59,12.29-1.89,1.25-3.46,2.96-4.54,4.96-1.07,2-1.64,4.25-1.65,6.52l-.16,43.29Z" fill="#002346"></path>
  </g>
  <g>
    <polygon points="187.9 548.79 187.8 574.25 153.47 574.15 153.57 548.69 187.9 548.79" fill="#fff"></polygon>
    <path d="M188.3,574.75l-35.33-.1,.1-26.46,35.33,.1-.1,26.46Zm-34.33-1.1l33.33,.1,.1-24.46-33.33-.1-.1,24.46Z" fill="#002346"></path>
  </g>
  <g>
    <path d="M180.74,561.75c-.02,5.53-4.52,9.99-10.04,9.97s-9.99-4.52-9.97-10.04,4.52-9.99,10.04-9.97c5.5,.02,9.95,4.47,9.97,9.97v.07Z" fill="#f69074"></path>
    <path d="M170.73,572.22h-.04c-5.79-.02-10.49-4.75-10.47-10.54,.02-5.78,4.73-10.47,10.51-10.47h.04c5.75,.02,10.45,4.72,10.47,10.47v.07c-.02,5.78-4.73,10.47-10.51,10.47Zm0-20.02c-5.23,0-9.49,4.24-9.51,9.48-.02,5.24,4.23,9.52,9.48,9.54h.03c5.23,0,9.49-4.24,9.51-9.48v-.07c-.02-5.21-4.27-9.46-9.48-9.47h-.03Z" fill="#002346"></path>
  </g>
  <g>
    <path d="M94.68,566.1v-22.7l21.92-21.79c.57-.57,.58-1.51,0-2.08-.27-.27-.64-.43-1.03-.43l-46.14-.15c-.81,0-1.47,.66-1.47,1.47,0,.39,.15,.77,.43,1.04l21.78,21.92v22.72l-8.33,5.55c-.47,.33-.58,.98-.24,1.45,.19,.27,.5,.43,.82,.44h19.91c.57-.01,1.03-.49,1.02-1.06,0-.33-.17-.63-.44-.82l-8.23-5.55Z" fill="#e6e7e8"></path>
    <path d="M82.42,574.07c-.51-.01-.97-.26-1.26-.66-.25-.34-.34-.76-.27-1.17,.07-.41,.29-.78,.64-1.02l8.1-5.4v-22.22l-21.62-21.76c-.37-.37-.59-.89-.59-1.42,0-.54,.21-1.04,.59-1.42,.38-.38,.88-.59,1.42-.59h0l46.14,.15c.53,0,1.03,.21,1.4,.59,.38,.38,.59,.88,.59,1.42,0,.54-.21,1.04-.59,1.42l-21.76,21.64v22.19l8,5.39c.41,.29,.66,.76,.67,1.26,0,.42-.15,.82-.44,1.12-.29,.3-.68,.48-1.1,.48h-19.92Zm-13-54.59c-.25,0-.48,.1-.66,.27-.18,.18-.28,.41-.28,.66s.1,.49,.28,.66l21.94,22.08v23.23l-8.57,5.71c-.1,.07-.17,.19-.19,.32-.02,.13,0,.27,.09,.38,.09,.13,.24,.21,.4,.21h19.89c.12,0,.25-.06,.34-.16s.14-.23,.14-.36c0-.16-.08-.31-.21-.4l-8.46-5.7v-23.2l22.08-21.95c.18-.18,.27-.41,.28-.66,0-.25-.1-.49-.27-.66-.18-.17-.41-.27-.66-.28l-46.14-.15h0Z" fill="#002346"></path>
  </g>
  <g>
    <path d="M91.97,540.9l-11.89-11.79c-.19-.19-.06-.52,.22-.52l24.73,.05c.28,0,.41,.34,.21,.53l-12.18,11.74c-.31,.29-.79,.29-1.09,0Z" fill="#f69074"></path>
    <path d="M92.52,541.63c-.33,0-.65-.12-.9-.37h0s-11.89-11.79-11.89-11.79c-.23-.23-.3-.58-.18-.88,.12-.3,.42-.5,.75-.5h0l24.73,.05c.33,0,.62,.2,.75,.5,.12,.31,.05,.65-.19,.88l-12.18,11.74c-.25,.24-.57,.36-.89,.36Zm-.2-1.08c.11,.11,.28,.11,.39,0l11.83-11.41-23.78-.05,11.56,11.46Z" fill="#002346"></path>
  </g>
  <g>
    <path d="M497.89,585.62l22.68,.18,21.65,22.17c.51,.57,1.39,.62,1.96,.11,.04-.03,.07-.07,.11-.11,.27-.28,.43-.65,.44-1.04l.53-46.13c.02-.79-.6-1.45-1.39-1.49-.39,0-.77,.15-1.05,.42l-22.1,21.6-22.83-.22-5.55-8.33c-.31-.45-.93-.57-1.39-.28-.29,.18-.46,.49-.46,.83l-.17,19.89c0,.57,.46,1.03,1.03,1.03,0,0,0,0,.01,0,.34,0,.65-.17,.85-.44l5.68-8.19Z" fill="#fff"></path>
    <path d="M543.26,608.96c-.53,0-1.05-.22-1.43-.64l-21.48-21.99-22.18-.18-5.52,7.96c-.29,.42-.77,.67-1.28,.67-.88,0-1.58-.7-1.58-1.56l.17-19.9c0-.51,.27-1.01,.71-1.28,.7-.44,1.63-.26,2.11,.42l5.4,8.1,22.33,.22,21.94-21.45c.39-.37,.89-.57,1.42-.57h0c1.11,.05,1.94,.94,1.92,2.03l-.53,46.12c-.01,.54-.23,1.03-.6,1.41-.03,.04-.08,.09-.13,.13-.36,.33-.82,.49-1.28,.49Zm-45.65-23.88l23.19,.18,.15,.16,21.65,22.17c.33,.37,.87,.4,1.22,.08l.08-.08c.18-.18,.28-.43,.29-.68l.53-46.12c.01-.51-.38-.92-.88-.95h0c-.23,0-.48,.1-.66,.27l-22.25,21.75-23.34-.23-5.71-8.56c-.15-.2-.44-.26-.66-.12-.13,.08-.21,.22-.21,.38l-.17,19.9c0,.27,.22,.49,.49,.49,.17,0,.33-.08,.42-.22l5.84-8.42Z" fill="#002346"></path>
  </g>
  <g>
    <path d="M519.86,489.07h25.14s-.98,23.24-2.66,28.17c-1.68,4.93-3.76,12.98-3.76,32.88h-24.24c0-19.89-2.09-27.92-3.74-32.88-1.65-4.96-2.63-28.17-2.63-28.17h11.88Z" fill="#fff"></path>
    <path d="M539.12,550.65h-25.31v-.53c0-18.98-1.88-27.19-3.71-32.71-1.66-4.97-2.61-27.37-2.65-28.32l-.02-.56h38.14l-.02,.56c-.04,.95-1,23.38-2.69,28.32-1.84,5.41-3.73,13.53-3.73,32.7v.53Zm-24.24-1.07h23.18c.03-18.95,1.93-27.07,3.79-32.51,1.49-4.38,2.44-23.91,2.61-27.47h-35.91c.16,3.56,1.11,23.06,2.58,27.47,1.85,5.55,3.73,13.76,3.77,32.51Z" fill="#002346"></path>
  </g>
  <g>
    <path d="M540.23,509.34c-.14,2.16-.47,4.3-.99,6.4-1.71,5.33-3.41,13.1-3.41,30.69h-18.48c0-17.49-1.87-25.26-3.58-30.69-.49-2.11-.82-4.24-.99-6.4h27.44Z" fill="#f69074"></path>
    <path d="M536.33,546.93h-19.48v-.5c0-16.9-1.71-24.67-3.56-30.54-.5-2.16-.84-4.34-1.01-6.51l-.04-.54h28.52l-.03,.53c-.14,2.18-.48,4.36-1,6.49-1.69,5.27-3.4,12.99-3.4,30.57v.5Zm-18.48-1h17.48c.03-17.37,1.75-25.09,3.44-30.34,.46-1.86,.77-3.8,.92-5.75h-26.36c.18,1.94,.49,3.88,.93,5.79,1.84,5.85,3.56,13.61,3.59,30.3Z" fill="#002346"></path>
  </g>
  <g>
    <path d="M624.63,566.11c8.7,.44,10.16-1.69,11.77-2.78s2.53-2.03,4.41-2.04c1.89-.01,10.12-.4,12.76-.46,1.86-.04,4.39-.57,6.18-.74,1.09-.1,2-.85,2.3-1.9l.45-1.58c.71-1.21,.25,.97,.11-.42-.02-.23-.06-.47-.11-.7-.15-.74-.19-1.5-.03-2.23,.07-.32,.15-.62,.24-.92,.21-.62,.32-1.27,.31-1.93-.02-.41-.09-.81-.22-1.19-.24,0-.51,.08-.86,.17-1.39,.31-5.23-1-7.86-1.24-2.62-.24-10.83-1.21-12.7-1.39-1.87-.18-2.78-1.07-4.26-2.33-1.49-1.26-2.78-3.5-11.55-3.65-8.77-.15-28.12-.67-28.12-.67-.92-.05-1.85-.05-2.78,0-1.96-.06-3.88,.59-5.4,1.83-.95,1.14-1.44,2.59-1.39,4.07-.08,1.58-.17,3.86-.25,6.19-.08,2.33-.15,4.61-.18,6.18-.12,1.37,.2,2.75,.93,3.91,2.01,2.68,5.55,2.48,8.33,2.6-.17-.07,19.21,.75,27.93,1.21Z" fill="#e6e7e8"></path>
    <path d="M626.87,566.7c-.7,0-1.45-.02-2.27-.06h0c-8.16-.43-24.61-1.13-27.46-1.2v.02s-.47-.02-.47-.02c-.28-.01-.56-.02-.85-.03-2.64-.07-5.92-.17-7.88-2.78-.81-1.3-1.17-2.81-1.04-4.28,.03-1.53,.09-3.81,.18-6.15,.08-2.34,.17-4.61,.25-6.2-.06-1.57,.48-3.14,1.51-4.38l.07-.07c1.62-1.32,3.67-2.02,5.75-1.95,.89-.05,1.85-.05,2.79,0,.18,0,19.43,.51,28.1,.67,7.99,.14,9.96,1.99,11.4,3.34,.17,.16,.33,.3,.49,.44l.33,.28c1.29,1.11,2.08,1.78,3.64,1.93,.78,.08,2.67,.29,4.8,.53,2.99,.34,6.38,.72,7.9,.86,1.16,.1,2.51,.4,3.82,.69,1.57,.35,3.2,.71,3.88,.56l.18-.04c.29-.07,.54-.13,.79-.13h.38l.12,.36c.15,.44,.23,.89,.25,1.34,.01,.73-.1,1.44-.33,2.12-.07,.25-.15,.55-.22,.86-.13,.61-.12,1.28,.03,2.01,.03,.12,.05,.25,.07,.37,.22,.11,.4,.38,.31,.83-.08,.38-.29,.55-.5,.6l-.33,1.14c-.36,1.27-1.45,2.16-2.77,2.29-.7,.06-1.5,.19-2.34,.31-1.33,.2-2.71,.4-3.87,.43-1.25,.03-3.77,.13-6.27,.23-2.83,.11-5.49,.22-6.49,.23-1.38,.01-2.18,.58-3.3,1.38-.26,.18-.53,.38-.82,.57-.2,.13-.39,.28-.59,.43-1.4,1.07-3.26,2.49-9.24,2.49Zm-2.21-1.13c7.41,.38,9.37-1.12,10.8-2.21,.22-.17,.43-.33,.64-.47,.28-.19,.55-.38,.8-.56,1.18-.84,2.19-1.56,3.91-1.57,.98,0,3.76-.12,6.46-.23,2.51-.1,5.04-.2,6.29-.23,1.1-.02,2.44-.22,3.74-.42,.86-.13,1.68-.25,2.4-.32,.88-.08,1.6-.68,1.84-1.52l.5-1.7s.02-.04,.04-.07c0-.01,0-.02,0-.03-.02-.22-.06-.43-.1-.64-.18-.88-.19-1.71-.03-2.46,.07-.33,.16-.65,.24-.95,.2-.59,.29-1.18,.29-1.77,0-.2-.03-.4-.08-.6-.05,.01-.1,.02-.15,.04l-.2,.05c-.92,.2-2.51-.15-4.35-.55-1.28-.28-2.59-.57-3.68-.67-1.53-.14-4.93-.52-7.92-.86-2.12-.24-4-.45-4.78-.53-1.9-.18-2.93-1.06-4.23-2.18l-.32-.28c-.17-.15-.34-.31-.52-.48-1.31-1.23-3.11-2.92-10.69-3.05-8.67-.15-27.93-.66-28.13-.67-.92-.05-1.83-.05-2.73,0-1.86-.06-3.64,.54-5.05,1.68-.84,1.03-1.28,2.33-1.23,3.67-.08,1.63-.17,3.9-.25,6.23s-.15,4.6-.18,6.17c-.12,1.29,.19,2.56,.85,3.62,1.63,2.17,4.5,2.25,7.03,2.32,.29,0,.58,.02,.87,.03v.09c.9-.1,3.42,0,10.72,.32,5.32,.23,12.63,.56,17.22,.8h0Zm38.45-8.9h0Z" fill="#002346"></path>
  </g>
  <g>
    <path d="M663.84,549.32l-.36,10.77c-.02,.61-.5,1.09-1.06,1.07l-1.32-.05c-.57-.02-1.01-.54-.99-1.15l.36-10.77c.02-.61,.5-1.09,1.06-1.07l1.32,.05c.57,.02,1.01,.54,.99,1.15Z" fill="#f69074"></path>
    <path d="M662.45,561.68s-.04,0-.06,0l-1.32-.05c-.85-.03-1.52-.79-1.49-1.69l.36-10.77c.01-.44,.21-.87,.52-1.16,.3-.28,.7-.43,1.08-.41l1.32,.05c.85,.03,1.52,.79,1.49,1.69l-.36,10.77c-.02,.45-.21,.87-.52,1.16-.28,.26-.64,.41-1.02,.41Zm-.96-13.04c-.14,0-.25,.07-.32,.13-.12,.11-.18,.27-.19,.44l-.36,10.77c-.01,.33,.21,.6,.49,.61l1.32,.05c.16,0,.27-.07,.33-.13,.12-.11,.19-.27,.19-.44l.36-10.77c.01-.33-.21-.6-.49-.61l-1.32-.05h-.02Z" fill="#002346"></path>
  </g>
  <g opacity=".4">
    <path d="M634.99,561.38l.58-.42c1.3-1.19,2.99-1.87,4.75-1.93,.99,0,3.86-.12,6.62-.24h0l6.05-.24c.42,0,6.14,.15,6.62,.1l.28-7.57c-.49-.08-6.2-.81-6.61-.85-1.24-.11-3.68-.37-6.02-.64h-.07c-2.78-.31-5.55-.61-6.59-.69-1.75-.18-3.39-.98-4.61-2.25l-.54-.46c-.21-.17-.4-.35-.61-.54-1.21-1.1-2.85-2.61-9.95-2.78l-9.43-.19c-5.55-.14-11.1-.22-16.59-.44-2.25-.08-4.4-.28-6.43,1.21-1.82,1.39-1.83,4.71-1.93,6.94-.1,2.43-.19,4.9,0,7.33,.03,1.23,.37,2.43,1,3.48,1.18,1.67,4.46,1.39,6.08,1.49l12.37,.54c4.75,.21,9.49,.42,14.24,.67,7.11,.36,8.86-1.03,10.13-2.04l.65-.49Z" fill="#fff"></path>
  </g>
  <g>
    <rect x="601.23" y="538.87" width="16.74" height="28.41" rx="5.32" ry="5.32" transform="translate(32.6 1140.08) rotate(-87.71)" fill="#f69074"></rect>
    <path d="M618.36,562.3c-.08,0-.16,0-.24,0l-17.75-.71c-1.55-.06-2.99-.73-4.04-1.87s-1.6-2.63-1.54-4.18l.24-6.09c.13-3.21,2.84-5.73,6.05-5.58l17.75,.71c1.55,.06,2.99,.73,4.04,1.87,1.05,1.14,1.6,2.63,1.54,4.18l-.24,6.09c-.13,3.13-2.71,5.59-5.81,5.59Zm-17.52-17.45c-2.57,0-4.71,2.04-4.81,4.63l-.24,6.09c-.05,1.29,.4,2.52,1.27,3.46,.87,.95,2.06,1.5,3.35,1.55l17.75,.71c2.65,.09,4.9-1.97,5.01-4.62l.24-6.09c.05-1.29-.4-2.52-1.27-3.46-.87-.95-2.06-1.5-3.35-1.55l-17.75-.71c-.07,0-.13,0-.2,0Z" fill="#002346"></path>
  </g>
  <g>
    <path d="M591.72,507.93h22.85s-.89,22.5-2.43,27.28-3.4,12.59-3.4,31.84h-22.06c0-19.25-1.92-27.04-3.41-31.84-1.5-4.8-2.39-27.28-2.39-27.28h10.84Z" fill="#fff"></path>
    <path d="M609.24,567.55h-23.06v-.5c0-18.36-1.71-26.32-3.39-31.69-1.5-4.81-2.37-26.49-2.41-27.41l-.02-.52h34.73l-.02,.52c-.04,.92-.91,22.62-2.45,27.41-1.57,4.87-3.38,12.88-3.38,31.69v.5Zm-22.06-1h21.06c.03-18.48,1.75-26.29,3.43-31.5,1.37-4.26,2.24-23.23,2.38-26.62h-32.65c.14,3.39,1.01,22.34,2.34,26.63,1.68,5.39,3.41,13.35,3.44,31.49Z" fill="#002346"></path>
  </g>
  <g>
    <path d="M484.67,449.53s22.69,66.73-7.56,82.75c0,0-11.57,12.01-86.31,7.56l-12.9,35.15s-21.13-18.46-40.04-10.68l4-31.14s-12.01,0-30.7-25.8l-20.46-25.8s-2.67,18.24-15.13,35.15l-24.91,49.83s-12.9-27.14-35.59-14.24c0,0-3.56,1.33-1.33-8.01,0,0,18.24-74.74,24.47-88.98,0,0,14.63-55.66,45.43-53.61,2.45,.16,4.85,.74,7.15,1.59,5.56,2.06,22.33,8.48,36.25,21.61,3.57,3.36,7.28,6.57,11.09,9.65l15.75,12.75,7.12-28.92s5.37-31.52,40.2-18.92c1.69,.61,3.34,1.34,4.94,2.17,7.58,3.94,32.6,17.88,52.74,39.88,0,0,10.23-.44,25.8,8.01Z" fill="#fbe493"></path>
    <path d="M378.11,575.84l-.55-.48c-.21-.18-21.12-18.17-39.52-10.59l-.8,.33,4.05-31.47c-2.62-.32-13.94-3.05-30.54-25.97l-19.76-24.92c-.81,4.23-4.38,19.82-15.02,34.26l-25.33,50.67-.44-.93c-.06-.13-6.32-13.04-17.46-16.55-5.55-1.74-11.41-.89-17.43,2.53-.43,.17-1.22,.25-1.86-.31-1.21-1.07-1.28-3.76-.21-8.24,.18-.75,18.32-74.95,24.5-89.06,.12-.49,15.05-55.95,45.92-53.91,2.35,.16,4.81,.7,7.29,1.62,14.64,5.42,26.89,12.73,36.42,21.71,3.4,3.21,7.02,6.36,11.06,9.63l15.14,12.25,6.93-28.15c.01-.09,2.31-12.9,12.81-19.02,7.3-4.25,16.74-4.33,28.05-.24,1.66,.6,3.35,1.34,5,2.2,7.27,3.78,32.5,17.79,52.72,39.81,.04,0,.08,0,.12,0,1.97,0,11.62,.43,25.7,8.07l.17,.09,.06,.19c.06,.17,5.71,16.95,7.59,35.48,2.49,24.63-2.81,41.17-15.33,47.84-1.09,1.03-14.4,11.91-86.27,7.68l-13.03,35.48Zm-30.39-13.93c14.03,0,27.13,9.96,29.95,12.24l12.79-34.83,.37,.02c73.36,4.36,85.8-7.3,85.92-7.41l.12-.09c28.76-15.22,8.67-78.06,7.39-81.96-15.14-8.18-25.27-7.86-25.37-7.85h-.23s-.16-.16-.16-.16c-20.13-22-45.35-36-52.6-39.77-1.61-.84-3.25-1.56-4.88-2.15-11.01-3.99-20.16-3.93-27.2,.16-10.1,5.88-12.32,18.24-12.34,18.37l-7.31,29.72-16.36-13.25c-4.06-3.29-7.69-6.45-11.12-9.68-9.43-8.89-21.57-16.13-36.08-21.5-2.4-.89-4.76-1.41-7.01-1.56-30.02-2-44.77,52.69-44.91,53.24-6.17,14.11-24.28,88.22-24.47,88.97-1.3,5.45-.51,6.89-.11,7.25,.34,.31,.74,.18,.79,.17,6.19-3.53,12.33-4.41,18.15-2.58,9.95,3.13,15.96,13.1,17.6,16.18l24.47-48.94c12.28-16.68,15.05-34.81,15.08-35l.17-1.14,21.18,26.71c18.27,25.23,30.19,25.61,30.31,25.61h.56s-.07,.56-.07,.56l-3.9,30.3c3.07-1.14,6.19-1.62,9.26-1.62Z" fill="#002346"></path>
  </g>
  <path d="M341.86,533.67s-.03,0-.05,0c-.28-.02-.48-.27-.45-.54,2.64-29.04,11.92-85.34,12.02-85.9,.04-.27,.3-.46,.58-.41,.27,.04,.46,.3,.41,.57-.09,.56-9.37,56.82-12.01,85.83-.02,.26-.24,.45-.5,.45Z" fill="#002346"></path>
  <path d="M390.8,540.34c-.06,0-.12-.01-.18-.03-.26-.1-.38-.39-.28-.65l16.3-41.7c1.81-4.64,2.91-9.52,3.25-14.48,1.01-14.52,3.34-40.35,7.59-50.16,.11-.25,.4-.37,.66-.26,.25,.11,.37,.4,.26,.66-4.35,10.04-6.7,38.19-7.51,49.83-.35,5.07-1.47,10.04-3.32,14.78l-16.3,41.7c-.08,.2-.27,.32-.47,.32Z" fill="#002346"></path>
  <path d="M475.77,467.38c-.2,0-.39-.12-.46-.31-6.98-17.44-16.65-25.07-16.75-25.15-.22-.17-.26-.48-.09-.7,.17-.22,.48-.26,.7-.09,.1,.08,9.98,7.85,17.06,25.57,.1,.26-.02,.55-.28,.65-.06,.02-.12,.04-.19,.04Z" fill="#002346"></path>
  <path d="M290.7,482.06s-.06,0-.09,0c-.27-.05-.45-.31-.4-.58,.22-1.22,5.44-30.04,12.14-37.18,.19-.2,.51-.21,.71-.02,.2,.19,.21,.51,.02,.71-6.5,6.93-11.83,36.38-11.88,36.67-.04,.24-.25,.41-.49,.41Z" fill="#002346"></path>
</svg>
